<?xml version="1.0" encoding="UTF-8"?>
<svg version="1.1" viewBox="0 0 1280 1280" width="33" height="33" xmlns="http://www.w3.org/2000/svg">
<path transform="translate(453)" d="m0 0h374l26 2 34 5 34 7 27 8 29 10 23 10 25 12 22 12 25 16 28 21 10 8 14 12 35 35 9 11 7 8 15 20 14 20 12 20 12 22 13 27 11 28 11 34 6 25 6 32 3 22 2 26v374l-2 26-5 34-7 34-8 27-10 29-10 23-12 25-12 22-16 25-21 28-8 10-12 14-35 35-11 9-8 7-20 15-20 14-20 12-22 12-27 13-28 11-34 11-25 6-32 6-22 3-26 2h-374l-26-2-34-5-34-7-27-8-29-10-23-10-25-12-22-12-25-16-28-21-10-8-10-9-8-7-32-32-9-11-10-12-14-19-12-18-11-18-12-22-13-27-11-28-10-31-6-23-6-31-4-28-2-26v-374l2-26 5-34 7-34 8-27 10-29 10-23 12-25 12-22 16-25 21-28 8-10 9-10 7-8 32-32 11-9 12-10 19-14 18-12 18-11 22-12 27-13 28-11 31-10 23-6 31-6 28-4z" fill="#71888B"/>
<path transform="translate(246,59)" d="m0 0h2l3 28 4 10 1 5v29l5 2 1 5v26l-2 10-2 4v12l-2 2 1 5 5 14v5l4 1v4h-3v8l3 3 2 8h-2l1 9 2 5-1 8v5l4 1 2 7-1 5h-2l1 7-3 1-7 1-2-5-5 1-2-1 1-8 1-4v-7l-1-4v-2l-2-6-6-3-2-19-1-3-3-1-2-5v-5l-5 1v-2h-2l-3-6h-2v-3h-3v4l-5 1 4 4h-2l-1 3-2-1-1 7h-4l-1-6h-4l2 3v5h-2l1 6-2-1-2-6-2 3v5h-3v-4l-7 1v3l-3 1-1 2h-2l-1-6-6 5h-4l-1 5h-3l1 2 3-2h4l2 9-1 1h-5l-1-3-6 3-1-4h-2v9h2v-2l4 2-2 10v7l1 7 5-1 2 1-1 6-11 2 1 4 4-1 1-2 2 1v2h3l-1 4h-8v2l5 2 1 3-1 2-10-1-2-4v-4l-8 1-3-1-4 5-1 2-1 14v15 3l-1 11-2 3-1 5-6-1-4 8-6-1-1 12h-2l1 3h-3l1 4h-2l2 13-4 1h-2v16l1 5-3 15v26l-2 1-2 6-1 12-4 4h-2v21h-3l-3-1 1 5 5-2 3 1-1 4-2 4 4-1 2 3 2 11-2 4 4 4 1 2v9l6 2v2l-5 1 1 3 3 1 2 5v11l-1 3-3-1v-5l-3 1-1 22-3 1v-15h-3v17l4-1 4 3v7l-4 4h-2l1 2h5l2 5-3 7h-2v4h-4l-1 5 4-1 2 4-4 4h-3l1 28h-2l1 14 1 5 4-1-2-4 1-16 2-4v-8l-2-3v-5l5-1 2 5-1 13 1 1-1 13h2l3 11v-13l1-3 4 1 2 10-2 4 1 2v14l-2 5v14l-1 3v9l1 1v18l3 1v2h-2l-1 4-3-3-1 7h3l-1 4-3 2-3-2-1-9-1 2-5 1-3-1v-4h2l-1-5h-1l-1 14-4 3-4-4-3 1-1 2 2 1-1 3h-2v7h-2l-1-3-2 8h-2v6l-2 1-1 8-2 10-1 16-2 7h3l-2 20-1 32 1 6 1 11 12 5 1 1 1 10 6-4-1-11-1-9-3-5 1-4 1-2h4l2 3h2l1-9 5-4v-12l1-8h-6l-1-5 1-1 12-1 1-9 1-11 2-2 2 3-1 14 3 3 4 1 1 2v7l-4 10-1 5h6l2 2 3 9 1 13 3-4 8-1 2-6v-11l1-3-1-9 2-7-8 5-4-1v-8l5-4 3-8 1-2h2l1-4-3-1v-5h9l2-13 2-5v-5l4-5 5-12 5-6 4-6 4-1 1-6 3-3h3l1-5 3-3h2l1-5 5-10h2l-1-3v-10l3-3 1-4 9-1 2 1 1-4h2v-3l4-1 1-7 4-6h2v-3l6-4 5-6 4-2 7-9 6-7 5-3h3v-2l16-8 3-5 5 5 2-7 4-2 1-3h2l1-2 2 1 2-5 5-3v4h2l2-4 2-2h6l2-2h7l2 6h5v-6l3-2 7-1 2-7 5 2 5-11 9-1v-3l10-2 2-4 7-3 2-4 5-1 3 2 1 16 2 10 2 11 1 1 7 1 1 3h15l2-9 5 1 2 8 4 25 1 2h3l-1 10h-3l-1 4 4 1 2 3 1 14 3 1 3 9 2 5v3l4 1 2 8 5 9v2l4 2 3 5 3 2 2 5 2 1v2l7 1 4 2 1 3 3 2 3-3 4 1 1 1 1 8 10 4 6 3 9 6 10 9 2 5 4 1 3 4 15 6 4 3 6 2v2l6 2v3l6 2 2 1v2l8 1v3l2-1h8l2 1h11l3-1 2 5 4 1 4 2 1-3h4v3-4l-1-3h3l6 7 4-2v2l4-1h2l5-1v-2l4 2v2l3 1v3l7-3 1 3h13l4-1 1 2h3l1-2 7-1 3 3v3h3l1-3 10-2 3-3 9 3v2l9-3h10l1-3 5-4 7-4 3-3 6-3 8-7 8-6 7-6 7-4 8-1 2-2h3l2-5 3-1 2-4 1-1h6l3 1 5-2 8-6 5-5h3l-1 6-5 2-2 4-4 9-2 8-4 1-2 6-5 1-1 7-4 13v7l1 5-2 3-4 1-1 7 3 5 5 1h3l8 15 6 18 5 24 4 1 1-4h2v14l3 1v2l5-2 1-3h-3v-6l4 2 3 7 2 13 7 10 4 4 1-2h3l-1 4-2 1 4 3 3-1 2 5 3 1 5 6 9 5-1-7 4-1v-7l8 1 1-2v16h-2v5l3 1 1 3 9 4 6-2h-2v-5l2-1v2l3-1 3 2 2-1 5 6 1 4v4l2-2 1 5-1 5 2-1v-4l4 1 1 13 6 2 2-4 2 1 2-5h2l1 11-4-1 1 4 6 1 6 5v-2l7 1 3 1-1 4 8 1v2l2-1h8l5-1 1 9h7l5 4 43 13 23 6 2 1 1-6 3 2 2-1 1 7 7 2v2h2l1-3 1 4h4v-8h1v10l16 4 4 2 1-2v2l9-1v4l4 1 8 4 8 5 5 2 3-2h3l1 6 4 1-2 4-12 16-10 11-7 8-32 32-11 9-8 7-20 15-20 14-20 12-22 12-27 13-28 11-34 11-25 6-32 6-22 3-26 2h-374l-26-2-34-5-34-7-27-8-29-10-23-10-25-12-22-12-25-16-28-21-10-8-10-9-8-7-32-32-9-11-10-12-14-19-12-18-11-18-12-22-13-27-11-28-10-31-6-23-6-31-4-28-2-26v-374l2-26 5-34 7-34 8-27 10-29 10-23 12-25 12-22 16-25 21-28 8-10 9-10 7-8 32-32 11-9 12-10 19-14 18-12 18-11z" fill="#1D2A38"/>
<path transform="translate(1127,146)" d="m0 0 5 1 5 7-1 8 5-1-2-5 3-3h2l1 5 1 10 4 1v6l-1 7 3 14 4 2 8 10 2 2 9-1 4-4 10-5 2-2 14 21 11 18 12 22 13 27 11 28 11 34 6 25 6 32 3 22 2 26v350l-5-1-1 11-2-3-1-31-3-1-1-6h-1l-1-11h-2v-9l-3-1-4-15-1-3h-2l-2-10 1-3h-4l-1-5-3-2-1-3-4 2-1-3-3 1-1 2-3 1-3 7-2 1-1 3h-3v12h-2v11h-2l2 4v8l1 4v9l-4 3-1-1-1 4h2v3l-8-2-1 10 2 5-1 9-2 12-1 7v3l-3 1-2-1v-13l2-14 1-2v-9l-9 1-2 4-4 4h-3l-2 6-3 1-1 16-2 34-3 20h-4l-1 4h3v2l-2 1-1 5h-2l-1 6-4 12h-1l-1-6-2-1-1-3v-12l1-9-1-5-3-1-1-4 2-9-3-1 1-9-3 3-4 6h-1l-1-10-1 4v10l-3 9-3 16 1 5v10l-3 3-2 6-3 2-1-2v-9l-1-1v-7l2-3 2 1 2-18-1 3-1 10-3 3-3-8-2 5h-3l-3 11-2 3h-3v-4l-5-2-7-5v-12l-11 1-5 1-3 16-3 1-3-9-2-25-1-20h-2l-2 11v20l-1 7 1 6-3 13-1 9-3 5-3-3v4h4v2h2v5l-5 2h-3l-2-2h-4l-2-5v-11h-3l-1-3 1-7-2-8-3 17-1 2-3 1-2 10-4 2-1 4-3 2-1-7h-4l-3-3-3 2-1 5-2 1-2 3-5 1-2 3h-2l-1-5h-2v-3l-2-1v-4l-1-16h-5l1 6-2 22-2 4-1 11-4-1-2-4-1 5 1 4-4 2-2-7v-18l-1-8-1-4v-3h-2l-2-6-2 4-1 8h-3l-1-8v-13l1-2 1-16 3-7 2-14v-18l-1-3v-23h-5l-2-7 1-2h2v-4l-5-1-1-3 4-3 2-7 2-5v-9l3-11h2l-1-5 3-1-1-8 2-4 5-2 2 1 2-6 2-2h3l-1-21h-4v2l-3-1v-12l4-5 4-18v-43l-2-9-2-32-5-1-2-12-5-1-1-3v-10h-5l-2-10h-5v13l-3 1-1 14-3 7-2 9-8 15-2 1-4 9-3 10-10 26-5 9-7 6-10 3h-5l-3-6 1-9 9-25 4-13 5-17 2-3v-7l1-2h4l1 2-1 9 8-5 5-8 1-35 4-9 3-4h3l2-6 2 1 3 7 2 1 3-5 2-5 1-12 2-5 3-30-5-1 2-8 3-2 1 1v5h2l1-11-5-1-1-3 2-5h3l1-5-2-2 1-6 3-22 2-5 3-22 2-7 4-3v-5l-1-3h2v-13l-2-1 2-4-1-5v-14l2-4-1-5v-15l-1-1 1-18 4-8 1-1 1-10 4-6 3-8 7-9 8-7 3-2 1-7 3-1 1-7 6-8 2-10 1-2h2l1-7 3-6 7-4 1-9 1-2h3v-8l2-4h4v-3l-5-1 1-5h3v2l6-1 8 5 1 5-2 7 5-1 3 3 6 2 2 4v3l4 2 1 3h6l1-4 7-3 8-25 4-3 7-2 4-11 1-3h2v-3h2z" fill="#B2BBC0"/>
<path transform="translate(558)" d="m0 0h142l7 2 6 1 1 3 27 1 9 3v2h6l1-3 2 4 9 1 5 2v2l13 2h2v3l11 1 10 3 10 2 5 2h9l1-16 2-1 1 23 6 3 1 2 4 1v2l5 1 1 2 5 3h4l-1-3 4-1 2 4 4-3h2v7h5l10 9 2 2 2-1v-4h-2v-2h6l3 5 1-2 2-13 2 2v14h2l3-10 2-6h1v6 3l-3 21 3-1 2-4 4-2 1 10-2 9-1 10 8-2-1 5-2 1-1 3 14-1 4-1 1-2 3 1v4l4 1 1 7-2 3 2 5 2 1-1 4 2 1 2-6 2 1v5h2v2h-3l-1 3h-3v2h3v2h2v9l-3 2-3-3 2 9 5-3h3l1 5-7 3v6l-1 3v10l4-2h3l1 4-1 16-1 4-1 28 3 6 7 5v-3h3l1 2v6l-2 2 3 5 2 18 4 13 1 5v29l1 3 1 15 1 4-3 25-1 15-4 25-3 16-4 19-6 21-1 2-2 13-2 4v7l6 7v14l-3 14-6 11h-9l-3 4h-2l-2 6-4-2-1 7-2 6-2 12-3 5-2-1-1-4 4-21 1-21v-45l-3-30-3-10-2-3-4 3-5-1-2 5-10 5-4 3-7 3-2 5-3 1-14 1-3 4-17 5-15-1v-3l-3 1-1 2h-20l-23-11-5-3-5-5-5-4-7-11-1-4-6-2-3-2v-7l4-5 1-4-4-2-3-5-3-2-16-2-5-3-3-8-2-11-1-12v-23l5-15 4-4 1-3h3l1-6 8-5 1-3 11 1h16l5 1v2h11l4 2 24 3 2 1v3l5-1h10l5 4 6 1-1-5 5 3 9 1 3 2h4v-2h4l4 4 9 4v5l4 1 2 7 6 5h2l3 7 3 1-2-7-2-3-1-4-2-4-1-5-3-3v-5l-3-3-3-7-4-5-1-3v-8l1-2-5-2-1-2v-5l-2-5v-8h-2v-7l-3-4-3 1v-6l-5-1-2-8h-6l-2-5-5-5-3-5v-2h-3v-2l-6-2-3-2-2-6-6-3-5-1-2-7-2 1-2 8-2-4-1-6-8-1-6-5v-2l-6 1-6-2-7-1v2h-7l-3 1-1-3-2-1v-2h-2l1 3-8 1 1-7-10 1-4-1-1 2-4-1-3 1-5-1-1 3-5 1-1-2-9 1-1 3-9-2-1 4h-8v3h3l1 4-3-1v-2l-12 3-8 3-4 1-1 2-7 4-10 9-1 3h-2l-1 3-3-1 1-7-1-2-18 2-1 6-6 6-13 2-7 4-3 3-8 3-8 1-16 10-5 3-4 7-6 1-1 6 5 1 1 2 6 1v3h15l3 1 21 2 11 4 24 3 15 7 3 1 6 15v3h2v10l-2 5 2 1-2 4 1 5 3 4v2l-4 1v5l3 3-4 3-1 6h-2l-1 3h-9l-1-3h-3l-4-5h-8l-1-4-11-2-5-5-18-8-16-5-3-2-9-2h-8l-3-2-12 1-10 7-5 1 1 6-5 2-2 5-6 3h-2v3h7l-2 5-1 2 4 1-3 9-4 5-1 6 2 5 12-3 17-5 5-1h24l25 3 13 4 7 5 6 7-1 5-5 3-11 2-1 1-13 2-4 5h6l-3 6-8 5-11 4-9 2-47 1-8-1-3-3-9-5-7-10-1-6v-7l4-5 1-5-5-4-1-8h-3l-1-7-6 1-8-1-6-2v3l-3 1-2-5-2-1-1 4-5 8-3 5-10 30-5 16-5 21-3 21-3 26v13l1 17v26l-4 4h-3l-1-4-6 2-7-14-3-13v-7l-4 1-1 18 1 13 5 2 2 3v10l-1 1h-8l-1-1-1-13-2-1-3-17-2-41v-12l2-17 3-31 5-9 4-4 3-2-1-7 2-3v-16l-3-7-2-10-2-21v-44l3-20 3-11 3-20 4-8 4-9 3-1 1-10 5-11 5-21 4-13 4-16 4-9 1-15 4-11 5-9 9-11 3-7 5-2 6-12 7-7 5-11 9-11 1-3-4-2 2-5 9-7 10-4 15-9 13-11 5-10 8-5 5-4 7-4-3-4-1-3z" fill="#1D2A38"/>
<path transform="translate(730,238)" d="m0 0h27l7 2v2l7 2 4 6 7 3v2l5 1 4 2v2h2l2 6 3 2v2l4 1 3 1 3 6 5 3 5 5 3 4v12l-3 7-6 2-12 1-6-2-5 1h-12l-8-1h-13l-11-2-1 4-4 3-3 1-2 6h-3l-1 4-4 5-4 13v23l2 17 2 9 3 6 7 2 12 1 10 10-1 5-3 4-1 7 4 2 5 2 6 11 2 4 4 2 6 5 3 3 22 11 3 1 20 1 1-3h3v3h15l11-3 7-3 2-3 17-1 2-6 10-5 6-4 5-2 2-4h6l3-3 3 4 1 4v18l2 10 2 15v35l-2 26-5 18-9 14-4 12-7 14-3 19-2 8-3 24-4 19-5 14-5 10-2 8-5 4-6 10-2 5-4 1-5 8-7 5-5 5-7 3-9-1-6-6-1 7-8 7-9 6-9 4h-9l-1-3h-2l1-17 2-12 1-14-18-1-15-6-7-3-1-1-13-2h-12l-10-3-14-4-12-1-8-5h-28l-5-2h-6l-5 2-5-2-10-7-3-6 1-5 11-4 20 1 6-3 9 1 4-3 40 2 12 4 24 3v2l10 3 3 3 13 1 10 4-1 5h-2v4l8 1 5 6 2 4 4-2 3-1-1-8-3-8-11-12-5-4-7-8-13-10-14-8-17-7-6-2-4-3v-3l-17 1-2 2-15-2-5-5-3-2-9-1-6-5-5-5-1-3-4 1-2 3-4 1-1 3-6 3-11 1-5 2h-4l-1-3-2-1v-3l7-2 1-4 11-1 1-3 17-6 5-10 4-1 2-4 7-3 2-3 8-1 1-1 13-1v-3l10-5 10 2 8 7 6 4 7 5 4 1h14l7-8 8-17-3-10-5-5-7-10-5-4-4-9-5-3h-15l-30-1-4-2h-2v3l-3 1-2-5-14-1-4-6h-13l-3 1-4 7-5 3-8 2-3 2h-5l-1-1-5 2-4 4h-3l-2-5h-6l-2 4h-3l-2 6-5 7-1 7-6 4-3 7v11l3 4 10 3 4 5h2l1-3 1 4 6-1v7l1 2 7 3 2 1 1 5-5-1-2-3-5-1-1 7-4 4-8 2-2-2-2-7h-8l-3 3-6 8-5 3-9 3-9 7-6 8-3 7-6 3-17 4-4 1-3-8-7-19-9-40-4-18-7-19-2-5v-35l-6-9-5-6-5-5-4-9-1-6v-9l4-13 3-4h7l9 4 5 3v2l26 1 11-3 7-3 40-3 21-1 3-3 6-3 5 1 3 1 14 1 2 10v18l-2 10-5 9 1 7 2 1v2l15-4 11-8 6-10 4-5 5-8 6-21 4-9 3-14 3-10 1-9 1-26 3-10 2-18 3-6-1-5-6-11-3-2v-2h-3v-3l-3-1-4-9-7-2-11-12-7-3-6-2-10-2-9-3-3-6v-12l7-2 10-4 15-4 15-5 7-3 44-6 10-3z" fill="#D0D9E0"/>
<path transform="translate(1136,237)" d="m0 0 5 1 7 12v2l3 1 9 9 12 6h14l9-3 16-7 4-3h2l1-4 5-2 13 26 12 28 13 38 7 27 6 31 4 28 2 26v212l-4 3-1-9h-2l-3-3-3-1-1 4-1-3h-2v-4h-2l-2-5-6-2-2 1v-2h-3v-2h-2v-2h-3l-1 5-2-1v-4h-6l-6-2-4-1v2h-6l1-5-7 1-3 2-3-3-1 3-3 1-1 6-6 1-2 6-4 2-5 5-1 2-8 2v-12l-1-1-1-15-2-1v-3l-10 2h-5v-2l-5-2-4-2-2-10-7 1-5-4 1-8h-2l-2 6-4 6h-10v-3h-3l-1 4-5 4-5 1-2 2-5-1-3-7-8-3-3-9-4-31-3-8-1-7h-3l-1 6-3 6-3 8-6 24-5 8-6 1-5-5v-2h-7l-2-1-1-9 5-22-4 2-1 2-3-1v-2l-6 2-3-1v-12l3-20 6-1 3-9v-13l-1-3v-15l2-6 1-11-6-1-2-22-3-8v-18l-5-2-1-6-2 1-2 15-4 14-6 32-5 10-5 5-2-1-1-37h-6l-1-10 4-9 1-22 5-28 6-11 3-7 4 2 3 7 1 1 12 2v-9l-1-1v-5l6-3 4-10 1-5 1-24 4-7h10l3 2h5l5-5 14-2 2-2h3l1-4h2v-2l5-1 1 6 5 2-2 10v23l-1 2h2l1-7 6-4 2-10-2-10 1-5 2-9 3-5 5-4 4-4 4-2 10-1 6-10v-11l-3-2-2-6-1-12 3-10z" fill="#D0D9E0"/>
<path transform="translate(728,195)" d="m0 0 5 1 4-1h2 14l-1 7 7-2v-2h2v2l3 1v3l4-2 6 1v-2h7l9 2h3l6 6 8 1 3 9 2-7h2l2 7 7 1 5 3 2 6 8 4v2h3l6 9v2l4 2v4h6l2 5v3l5 1 1 4-1 2h2l1-2 4 5-1 7h2l2 12 1 1v6l5 3v10l3 6 3 3 3 7 2 2v7l4 2v6l3 3 1 4 2 3v6l-4-1-2-4v-3l-3 1-5-5-2-3-1-5-3-1-1-5-10-4-2-4h-4v2l-5 1v-2l-11-1-4-2v3h-6l-5-4h-15v-3l-26-3-4-2h-7l-4-2 12-1 7-1 4 2 12-1 1-1h5l1-5 1-2v-12l-15-15v-3l-4-1-3-1-5-6v-4h-2v-2l-9-3-1-2-7-3-3-5-7-3v-2l-7-1h-27l-12 2-14 3-37 5-15 6-20 5-8 4-10 2v12l3 6 8 2 10 2 6 2 7 3 7 7 4 5 8 3 4 9 2 1v3h3l5 6 6 11-1 5-2 4-2 18-3 10-1 26-2 12-4 14-2 10-4 10-6 19-7 10-5 8-5 6-11 7-8 2h-5v-2l-3-1-1-7 5-9 2-10v-18l-1-10h-14l-5-2-4 1-6 3-2 2-35 2-26 2-9 4-9 2h-10l-13-1-3-1-3-3-8-4-3-1h-7l-4 8-2 8v9l2 9 5 9 6 5 7 10 1 2v35l9 24 9 40 5 21 6 16 2 7 10-2 14-4 3-2 4-9 8-9 10-6 7-2 5-5 5-7 2-1h8l4 9 9-3 3-5 1-4h5l2 4 5 1-1-5-9-3-2-3 1-7-6 1-1-3-3 3-4-4v-2l-10-2-4-5v-11l4-8 4-3h2v-7l6-9 2-4 3-1 2-4 6 1 2 5 5-2 3-4 5-1v2l7-2 3-2 8-2 4-4 3-5 3-1h13l4 5v2h11l3 1 3 4h2v-3l4-1 2 2 42 1 5 1 4 3 4 9 5 4 7 10 5 5 3 10-9 19-7 7h-14l-7-3-20-15-8-1-8 4h-2v3l-13 2-1 1-8 1-4 4-6 3-3 3-2 1-5 10-17 6-1 2-4 1h-7l-1 5-7 1v3l3 1v3l9-3 11-1 6-2 1-4 4-1 2-3h4l5 5 5 6 2 1 9 1 5 4-1 2-4-2-10-2-10-4-10 5h-8l-2 3-5-1-3-2-5 2-1 1-12 2-5 2h-6v2h-10l-2 1-12 1-8 3-7 1-4 4-5 1-2 12v6l-1 2v10l-1 1-1 7-6 6h-2l-1 4h-8v-2l-7 1-1 3-3-3-2-7-13 2-10-1-1-12 1-2-6-2-5-16-5-31-3-11-3-20-4-8-5-14-3-18 1-4h-2l-1-15-3-7-3-28-2-8-3-3-1-8v-11l1-5-1-1v-7l3-11-1-4 3-1 8-10 3-5 5-2h6l8 5 1 2 6 2 3 7 3 1v2l4 1 8 3h13l32-3 18-2 18-4 9-4 4-3 21-3 1-11 5-6-1-5-5-6-8-5-11-3-25-3h-24l-16 4-17 5-2-1-2-5 1-6 4-5 3-7 1-2h-5l4-8h-7v-3l8-4 2-5 5-1-2-3 1-4 6-2 9-6 12-1 3 2h8l11 3 10 4 13 4 5 3 7 3 5 5 9 2 3 3v2l8-1 4 4v2h3l1 2h9l1-2h2l-1-3 3-5 2-1-3-3 1-5 4-1-1-4-3-1v-5-4-2l1-7v-6l1-2h-2l-6-16v-2l-6-1-12-6-24-3-11-4-21-2-3-1-15-1v-3h-6l-1-3-5-1 1-6 6-1 2-5 5-5 17-10 6-2 6-1 7-2 2-4 6-3 13-2 4-5h2l1-6 9-2 9-1 2 5-1 5h2l1-2h2l1-4 10-9 4-3h3l1-3 10-3 4-2 10-1 2 2v-3h-3v-3h8l1-4h5l4 1 1-2 11-2-1 3 5-2z" fill="#B2BBC0"/>
<path transform="translate(808,840)" d="m0 0 5 1-1 4h-3v3h2v11l-6 41-4 7-1 4 9-4 2 1 1 4h3v-7l3-3h2l-2-4 4-8 2-7h2l5 15v21l-6 21-8 24-4 11-4 2-10 17h-3l-3 12-4 6-5 4-11 4-7 8-4 1-4 10h-2l-1 4-1 7 9-7 12-6h5l2 2-1 7-4 10-5 16h3l1-7 7-14 3-3 4 1v7l6-2v15l-2 27-4 26-2 17-4 12-3 6h-2v-34l1-3h-2v5l-3 1v-8l3-14h-2l-1 9-6 13-2 16-1 7-5 21-2 9-4 19-1 2h-2l-1 10-3 7-2-2v-12l2-33 4-19 4-24 3-7 2-15-12 36-9 26-3 7v52l-1 52-1 2h-107v-23l1-58v-20l-3-30v-27l5-6 3-1 2 1 1-3 3 1 2 5h1l2-9 10-10 5-4 10-3h10l2-6 9-7v-2l-10-1-3-1-2 5h-6l1-5 6-9v-2l-4 2h-15l-3-4-6 7-5 3-10 1v-21l2-6 4-4 9-2v-16l6-9 8-6 2-1h10l9 8v2h11l8 5h8l12-6 21-9 12-6h21l5-7 2-9 4-2 1-15 2-7-3 3-2 13-3 1-6-7-3-5-3-1v2h-7l-5-2-4 6-3 3-4 8-5 1-5-4h-8l-2 2-5-1-5-3-6-10-6-4-2 4-4 2-6 10-4 3-6 2-4 4h-4v2l-5 1-3-1-2 5-7 2-4 4-3 5v4l-5 1v4l-3-1-1-5 3-7 1-6-5-2-3-3-1-8h-7l-3-1-1-7 3-12v-4l-1-8h-2v-4l5-1 1 4 2-7 4-3 14-6 18-3 4-4 10 1 14-5 1-2 5-1 1-3 6-2 4-2 4 1 2-4h2l1-4 6-1 2 2 1-5 10-4 1-2h10l-1-7h3v-2h7l1 1 2-8h3v-2h2l-1 3 2 1 1-6 4-1 2-4 2-1 1-3 4-2 5-5 5-1v-2h2v-9l4-4z" fill="#71888B"/>
<path transform="translate(700)" d="m0 0h127l26 2 34 5 34 7 27 8 29 10 23 10 25 12 22 12 25 16 28 21 10 8 14 12 35 35 9 11 7 8 15 20-1 4-12 6-2 3-9 1-9-10-6-7-3-12 1-13-3-1-2-10v-5l-4 4 1 4-6 2 1-9-5-7h-4l-1 2h-2v3h-2l-2 10-3 5-8 3-3 1-2 10-5 15-6 3h-2l-1 4h-6l-5-5-3-7-6-2-3-2h-4l1-10-2-3-7-3h-5v-2l-3 1v4l4 1v3h-4l-2 12h-3l-1 11-8 5-3 7-1 5h-2l-2 12-6 8-2 7-2 1-1 7-10 9-5 5-5 8-3 7-2 3-1 10-4 7-1 2-1 18 1 1v15l1 5-2 4v14l1 5-3 4 3 1v11l-1 2h-2l2 3v5l-5 4-3 20-2 10-2 11-2 14-1 6 2 2-1 6h-4l-1 6 5 2v7l-1 4h-2l-1-5-3 3-1 6 4 1-1 22-2 3v-19l-6-7v-7l3-7 1-10 3-8 5-18 6-32 4-25 3-35 1-6-1-3-1-15-1-3v-29l-3-13-2-5-2-18-3-6 3-1-1-8h-3v3l-4-2-5-5-2-4 1-28 2-13v-11l-4 2h-3l-1-12 1-5 1-3 6-2v-5l-6 3h-2l-2-3v-6l3 1h2l1-9h-2v-2h-3v-2l3-1 1-2h3v-2h-2l-1-5-2 3-1 2-3-1 2-4-4-2-1-5 2-2v-7l-4-1-1-4-2-1-1 3-9 1h-9l1-4 2-1 1-4-5 2h-3v-10l2-10-1-8-5 5 4 1h-7v-9l2-12v-3-4l-3 11-2 3h-2l-1-14-1 2-2 13-3-4-1-2-6-1v2h2l1 5-4 1-5-6-3-2v-2l-8-2v-7l-4 3h-2l-3-3h-3l2 4h-5l-6-4-1-2-4-1v-2l-5-1-1-2-5-2-1-1-1-22-2 16-2 1h-7l-7-3-11-2-18-4v-3l-4 1-11-3v-2l-14-3-2-3-1 2h-6l-1-2-11-2-24-1-1-4-12-1z" fill="#72898C"/>
<path transform="translate(494,1059)" d="m0 0h5l9 10 5 5 21 5 24 3 9 3 7 2 4 4 1 2v14l-1 3-1 16h3l4 16 4 24 1 10v32l-2 9-1 9-4 7-1 4h3v-2l4-1 1-3 4-1 1 1-3-42-3-33v-17l1-44 1-9v-8l2-3 5 1v-3h4l-1 14-2 7h3v-12l1-10h4l-1 6 4 2 3 2-1 4-5 1-1 2 8-1 3 4v10l-1 3-4 2-3-1-6 5-3-1-1-4-2-1v37l2-16 1-3 4 1v2l4-1h8l-1 8h2l4 15 3 24v22l-6 42-3 42-1 2h-56l-12-22-4-10-2-12h-2l-3-12-5-22-2-8-1-13-2-6-1-12v-13l1-3 4 1 10 13 8 12 7 11 3 7 4 9 4 7v3l1-1-3-15-5-15-8-18-5-12-7-19-12-23-8-13-3-6v-2l-5-2-6-10-9-11z" fill="#71888B"/>
<path transform="translate(728,195)" d="m0 0 5 1 4-1h2 14l-1 7 7-2v-2h2v2l3 1v3l4-2 6 1v-2h7l9 2h3l6 6 8 1 3 9 2-7h2l2 7 7 1 5 3 2 6 8 4v2h3l6 9v2l4 2v4h6l2 5v3l5 1 1 4-1 2h2l1-2 4 5-1 7h2l2 12 1 1v6l5 3v10l3 6 3 3 3 7 2 2v7l4 2v6l3 3 1 4 2 3v6l-4-1-2-4v-3l-3 1-5-5-2-3-1-5-3-1-1-5-10-4-2-4h-4v2l-5 1v-2l-11-1-4-2v3h-6l-5-4h-15v-3l-26-3-4-2h-7l-4-2 12-1 6 3 28 1h6l5 1h5l1-4 5-2v-7l-2-5v-6h-3l-2-4 1-4h2v-4h-2l1-4-2-3-2 2h-4l-2 5-4-2-2-10h-11l1-5 3-3h2v-4h-4v-11h-4l-2-7h-4l1-6 2-3-7-2v-2h-4l-1-8-9 3-5-5-1 2h-2v-2l-9-3v2l-4-2v-3l-13 3-5 2h-12l-12 1-1 6-5 1-4-4h-8l-6 4-6-1v2h-2v3l-5 5-5 4-10 4-16 4-3 2-11 2-11 3-9 1-3 3h-17l-1 4-16 5-8-1 2 6 3 3-2 5-3 3 3 2 8 6 3 1v-2l-2-1h8l13 7 16 1 5 1 6-1 1 1 7 1v6l5-1 6 6 3 6 5 3 7 14v11l3 4 2 9h-2v14l-1 20-3 15-2 7-4 30-3 10-4 9-3 9-7 9-6 7-4 3-5-1v-9l6-10 3-4 4-18h-9l-2-2 1-7 2-8 1-10 1-4-4-8-4-4-1-2-4-1v-2l-7-1-2-1-1-9-5-5-3-4v-7l2-2 1-5-6-2-9-6-5-3-7-2-8-3-10-1-5-1-2 2-13 1 2 4 2 1v2l-9 4v10l-5 5-6 1-1 4 2 7 3 2v3l3-1 12-1h24l37 3 8 6 3 5v3h2l-1 4-6-7-8-5-11-3-25-3h-24l-16 4-17 5-2-1-2-5 1-6 4-5 3-7 1-2h-5l4-8h-7v-3l8-4 2-5 5-1-2-3 1-4 6-2 9-6 12-1 3 2h8l11 3 10 4 13 4 5 3 7 3 5 5 9 2 3 3v2l8-1 4 4v2h3l1 2h9l1-2h2l-1-3 3-5 2-1-3-3 1-5 4-1-1-4-3-1v-5-4-2l1-7v-6l1-2h-2l-6-16v-2l-6-1-12-6-24-3-11-4-21-2-3-1-15-1v-3h-6l-1-3-5-1 1-6 6-1 2-5 5-5 17-10 6-2 6-1 7-2 2-4 6-3 13-2 4-5h2l1-6 9-2 9-1 2 5-1 5h2l1-2h2l1-4 10-9 4-3h3l1-3 10-3 4-2 10-1 2 2v-3h-3v-3h8l1-4h5l4 1 1-2 11-2-1 3 5-2z" fill="#72898C"/>
<path transform="translate(918,436)" d="m0 0 4 4 1 4v18l2 10 2 15v35l-2 26-5 18-9 14-4 12-7 14-3 19-2 8-3 24-4 19-5 14-5 10-2 8-5 4-6 10-2 5-4 1-5 8-7 5-5 5-7 3-9-1-6-6-1 7-8 7-9 6-9 4h-9l-1-3h-2l1-17 2-12 1-14-18-1-15-6-7-3-1-1-13-2h-12l-10-3-14-4-12-1-8-5h-28l-5-2h-6l-5 2-5-2-10-7-3-6 1-5 11-4 20 1 6-3 9 1 4-3 40 2 12 4 24 3v2l10 3 3 3 13 1 10 4-1 5h-2v4l8 1 5 6 2 4 4-2 3-1-1-8-3-8-11-12-5-4-7-8-13-10-14-8-17-7-6-2-4-3v-3l-17 1-2 2-15-2-2-2 14-1v2l5-2 1-1h21l3 5 7 4v2h9l11 7 20 12 5 5 16 4 13 15 10 13 4 7 7 2h10l4-2 5-11 8-11h2l2-5 11-13 5-10 5-18 10-26 8-22h2l3-9 7-8h3l2-6 6-10 4-12v-55l-2-19-1-7-4-4-5 1-8 4-12 1-10 4-4 4-5 2-15 2h-14l-5-1-19-1-12-3-1-2 5 1 20 1 1-3h3v3h15l11-3 7-3 2-3 17-1 2-6 10-5 6-4 5-2 2-4h6z" fill="#B2BBC0"/>
<path transform="translate(745,308)" d="m0 0 11 1h16l5 1v1l-14 1-12 4-5 1-4 4h-2v6l-1 2h-2v2l-4 2-3 10-2 7v15l5 8 6 5 1 2h11l1 1h9l8-5h3v-2l9-1 2-3h6l3 2v-4l7-3 8-2h15l18 1h4l4 3 9 3 3 2v5l8 1v2l4 2 4 1-1 5-1 3h6l4 12 2 3v6l-6 1h-5l-3-2v-2l-6-1-5-3v-2l-6-2h-2l2 4h2l3 5v3h2l6 12 6 4 1 5 9 1 1-4 4-1-1-3-2-1v-4l5-1-4-5 2-2h7l2-5 5-5-1-4h2v-2l4-1 1 9 5 8v2l4 1 4 10 1 7v9l-4-6-4 3-5-1-2 5-10 5-4 3-7 3-2 5-3 1-14 1-3 4-17 5-15-1v-3l-3 1-1 2h-20l-23-11-5-3-5-5-5-4-7-11-1-4-6-2-3-2v-7l4-5 1-4-4-2-3-5-3-2-16-2-5-3-3-8-2-11-1-12v-23l5-15 4-4 1-3h3l1-6 8-5z" fill="#72898C"/>
<path transform="translate(647,744)" d="m0 0 5 1v2l11-1h13l11 3 7 3 11 1 2 1 12 1 1 3 7 1 4 2h7l3 3 7-1 2-1h13l-1 3 16-1 4 4v4h2v5l-4 1 2 5-1 3-6 3-3 7-5 2v8l-4-1-1-4h-4l-2 5-10 3-4 5-8-1v2h-14l-4 3-2-6-7-1h-5l-2-3-3-1v2l-6 1-19 1-7 1-1-6-10-1-7-1-1 3-4-5-2-4-1 2-5 1-4-4v-2h-2v3l-4 1v3h-12l-2-1h-8l-7-1v-3h-3v-2h-6l-1-4h-5v-2l-5-1-5-5-4-8-1-3h2l-2-5-2-9 7-3h4v-3h3v-2l11-2 4 1v-2h9l12-2 7 1h10z" fill="#B3BCC1"/>
<path transform="translate(690,1091)" d="m0 0h10l3 9 3 17 3 22v10l-6-1-2 5-3 3h-2l-2 8-8 2-1 2h-3l-2 10-1 3h-2l1 6-4 1 2 7 2 1 5-1-1-8h5l1 3h2v-2l7 1v-8l3-1 1-3 6-2 1-2 5-1 3 12v20l-2 7-4 3v-6h-2v14l-3 11-7 8-1 7-4 8-3 2-3 6-4 7-2 8-3 1h-27l1-29v-50l3 2 3-4 2 3v5h2v-4l3-3 2-5 1-9 4-7-1-9-4-2 1-7 1-4h-2l-1-4-7-4h-4v-2h-2l-2-8v-7l5-2-1-4-7-7 2-4 2-5h4v2h6l2 3 4 1 1-3h5l4 3 2-6 7-3h2v-15z" fill="#B2BBC0"/>
<path transform="translate(647,521)" d="m0 0h9l6 5 5 4 8 1v-2l-4-2h7l7 1 3-1 3 2v2l14 1 10 2h11l2-4 7-1 3 5 8 10 6 10 5 5 1 3v12l-8 14-5 2h-8l-8-3-7-7-14-9h-6l-15 7-31 1-5 2v-2l-4 1-2 2-8 1h-10l-12-2-6-4-1-3h-5l1-13-4 1 1-10 6-2 7-12 3-3h2l1-3 11-5 9-3z" fill="#1D2A38"/>
<path transform="translate(660,629)" d="m0 0 5 1 8 1v4l2 1v-2l7 1 8 2v2l6-3h3l2 8 2-1 1-5 3 1v2h7l1 4 5-1 2 3 8-1 2 2 6 2 3 3 9 3 11 7 10 10 3 6-1 4h-17l-10-6-17-2-16-3-9-3-30-2-4-1h-23l-3-1-1 1h-17l-3-1-2 3-6 1-3-1v-2l-3 2-20 2-1 1-7-1-1-4-14 1v-10l8-7h3l1-3 5-2h3v-2l2-1 10-1 8-4 19-1 15-3 3-3 17 1z" fill="#1D2A38"/>
<path transform="translate(439,1)" d="m0 0h10v22l1 10v18l-2 3h-8l-6-2-3-5h-7l-1 6-2 1v9l6 2 1 14 2 5 5 7v9l-9 1-2 5-9 10-4 9-10-2-3-1-2-8v-8l-4-9-3-17-1-3-1-20h-2l-1-10-1-2v-17l-1-9-2-5v-4l13-3 34-5z" fill="#1D2A38"/>
<path transform="translate(645,749)" d="m0 0h6l5 1h19v2h8v2h11l4 2 1 2 1-1h12l3 1 1 5 11 2 10 5 10 6v2l4 2v8l-4 8-2 1-2 4-3 2-8 1h-9l-3-1-1-2-10-1h-29l-5-2v-3h-8l-2-1v-4h-12l-10-6-2-3-9-1h-10l-14 2-5 1-12-6v-11l1-2 12-2 1-5 8-1h13l4-3 11-2h4z" fill="#D1DAE1"/>
<path transform="translate(772,404)" d="m0 0 4 1v2h18l16 3 11 3 10 2 13 5 15 8 13 10 2 5 5 1v2h-2l-1 8-4 4-9 1-2 4-7-1v2l-7 2h-6v-2l-7 2 1-6-5-1v6l-2 3h-7l-5 1-11-3-12-5-10-6-8-10v-2h2v3h3v-7l-12-5-14-8v-5l9-10h3l-1-5z" fill="#1D2A38"/>
<path transform="translate(612,695)" d="m0 0 10 1 5 1 7 1 4-1 23-1h14l6 4 16 2 8 3v4h12l9 2 1 2 7 3 5 3 3 12 1 6-7 5-11 2-3 3-11 2-1-1h-9l-18-6-2-3v-3l-12-1-4-2v-2l-2 1h-8l-3 1h-11l-4-1-6 2h-6l-2-2-8-1-2-5-5-1-4-2-1-6h-2l2-14 6-4z" fill="#1D2A38"/>
<path transform="translate(1131,698)" d="m0 0h10l1 6h3l2 15 3 1h3l1 3 5-1 2 8v5h2v2h4l2 6v18l-1 1-1 11 1 13-4 11-3 6-1 5h2l1 3v8l-2 3v7l-9 3-4 4-1 5h-1v-5l-7-1v8l-1 4-5 1-2 5h-1l1-18 2-20v-7l-1-8h2l-2-4v-29l-3-9-4-8-3-2-1-5v-21l5-3 2-7 2-2z" fill="#72898C"/>
<path transform="translate(539,1091)" d="m0 0 5 2 1 1v7l7-2h10l8 1h2l1 4-4 3-7 2h-7l-5 2v9l-1 17 4 12 5 5 1 4h2v3h2l4 8 2 16 1 6h2l2-2 1 2 2 16-1 18h-3v2h3l1 5-4 1v7l-3 9h-3v6l-8 5-4 1-2 2-4-4-2-6-3-3-4-16-3-16-2-28-2-9-2-1v-4l-2 1v-6h4l1-5h3l3 5 3 2 1 6 3 2v3l5 2 2 6v8h2l3 5 1 8 3 1 3 8 4-2-2-16-7-21-5-12-8-17-7-20-2-6v-8l1-3h-5l-3-3-3-8v-8l3-1 1-3z" fill="#B2BBC0"/>
<path transform="translate(786,1048)" d="m0 0 4 1v7l6-2v15l-2 27-4 26-2 17-4 12-3 6h-2v-34l1-3h-2v5l-3 1v-8l3-14h-2l-1 9-6 13-2 16-1 7-5 21-2 9-4 19-1 2h-2l-1 10-3 7-2-2v-12l2-33 4-19 4-24 3-7 2-15-12 36-9 26-1 2-2-1 6-18 3-11 4-13 6-16 11-32 4-8 1 2h3l1-7 7-14z" fill="#71888B"/>
<path transform="translate(745,308)" d="m0 0 11 1h16l5 1v1l-14 1-12 4-5 1-4 4h-2v6l-1 2h-2v2l-4 2-3 10-2 7v15l5 8 6 5 1 2h11l1 1h9l8-5h3v-2l9-1 2-3h6l3 2v-4l7-3 8-2h15l1 2-14 1-2 5h-7l-3 11 5 1 1 4h11l7 1v1l-22 1-10 3-1 2-5 1-2 4h8l2 3 3 1v3h-18l-1-2-9 1v5l-5 3-2 1v-3l-4-2-3-5-3-2-16-2-5-3-3-8-2-11-1-12v-23l5-15 4-4 1-3h3l1-6 8-5z" fill="#71888B"/>
<path transform="translate(648,512)" d="m0 0h13l4 5v2h11l3 1 3 4h2v-3l4-1 2 2 42 1 5 1 4 3 4 9 5 4 7 10 5 5 3 10-9 19-7 7h-14l-7-3-20-15-6-2v-1h6l15 10 7 7 7 2h8l5-2 7-13v-12l-3-6-5-5-7-11-7-8v-3l-7 1-2 5h-11l-10-2-14-2-3-3-5 1-10-1 2 1v2h-8l-3-2v-2l-5-2-3-3h-9l-11 5-10 3-6 3-5 5-5 9-4 5h-4l-2 10 4-1v8l-1 5 5-1 2 4 8 4 9 1h10l8-1 3-3 4 2 4-2 34-1v2l-13 2-14 1-5 2-3 3h-6l-1 5-9 1-7 1-1-4-4 1v3l-4 1-5-3-6-8-10-4-3-3v-2h-5l-3 2-2-2-1-9 2-2-1-9v-6l2-4 1-5 3-3h5l3 2-1-4 3-1 1 2 5-1 4-4h2v-2l10-3 3-2 8-2 4-4 3-5z" fill="#71888B"/>
<path transform="translate(816,364)" d="m0 0 23 2-1 4 6 1 3 3 3 5v3h-2v2l3 1-1 5-4 3-5 1 5 5 7 6 8 11 1 7 2 2v3l-6-1-6-4-14-6-20-4-16-4-8-1v-4l-4-1-1-2-8-1 2-5h5l1-3 10-3 15-1-11-1-1-4-5-1v-5l3-6 7-1 2-5z" fill="#B3BCC1"/>
<path transform="translate(785,901)" d="m0 0 4 3v2l3 1-1 5-5 5-4 2-1 4-8 4-2 4-6 2-5 1-1 5-5 3h-2v4l-10 3-8 4-5 1-3 3-9 3-17 1-3 2h-3v-2l-7 1v-4l9-3 13-2 6-5 6-15 17-8h2l1-4h9v-6h4v-2h2l-1-5 4-3 5 2 6-4 7 1 4 2v5l3-2z" fill="#B3BCC1"/>
<path transform="translate(474,1059)" d="m0 0 3 2 6 13 12 17 12 23 2 11-1 17-2 10-2 26-2 9-3-1-4-13-10-42-9-53-2-11z" fill="#72898C"/>
<path transform="translate(940,550)" d="m0 0 2 1v2l4 2 4 4v4l5-1 1 1-1 8-3 10-5 7-3 10-3 6-6 5-3 8h-2l-1 7-2 15-5 13-5 8-8 8-12 2v-11l12-31 3-10 2-5 9-3v-2l5-5 4-5 3-7 2-10 1-16 2-5h-2v-7z" fill="#D0D9E0"/>
<path transform="translate(318,448)" d="m0 0h6l1 10 6-1-1 9 4-1v5l-5 1v4l3 1 1 3 4 4 2 17 3 6v9h5l1 19h-2v6l-3 3h-2l-1 8-2 7-4-2v-4h-2v-6h-2v-3h4v-2l-3-1v-3l-4-1v13l-4 1-4-9-2-5 1-3 3 1v4h2l1-4h2l-1-3 1-2-4 3-7-8-1-6h2l-2-5-1-1v-5l5 1 3 9 3 5v3h2l-1-11 3-3 1-2h-4l-2-9v-9h-2l-2-20-1-4v-7l-1-2z" fill="#B3BCC1"/>
<path transform="translate(635,1185)" d="m0 0h7l1 4 4 2 1 19v54l-1 14-1 2h-18v-23l1-55 2-9h2l1 5 1-4z" fill="#B0BABE"/>
<path transform="translate(665,668)" d="m0 0 5 1v6h2v-6h12l2 3 3-1 1-2 14 2 1 4h6l5 9 3 1 5-1 10 4 5 1v3l-10 2-1 3-9 1-2 1h-6l-9-3-12-1-3-2v-2l-5-1-1-2-15 1-13-1-16-5-2-6 3-2 20-1 5-2z" fill="#D1DAE1"/>
<path transform="translate(665,1009)" d="m0 0h10l9 8 2 4-1 26 5 1-2 7-10 5h-18l-9-18v-2h-2v-15l6-9 8-6z" fill="#CED7DE"/>
<path transform="translate(765,1049)" d="m0 0h6l3 3v9l-6 17-14 40-3 8-4 13-5 16-5 15-3 1-1 25-2 8-7-2v2l-2 1-2 3-1-1-2-25 2-6 5-5h2l1-7h4l6-19 10-22v-10l5-10 2-6 3-14 1-13 6-8v-5l-2 4-7 6h-4v-5l9-11z" fill="#B3BCC1"/>
<path transform="translate(786,997)" d="m0 0h5v9l-5 6-2 1-10 1-5 3-3 5-7 2-2 1h-7l-3-1-3 1-3 11-3 2-5-2h-6l-1 3-5 2h-9l-1 4-3 1h-7l-4-1h-2l-1 2-3-2 4-7 3-5 2-2h11l6-5 8-3 9-5h7l9-6 6-5 9-1 8 2 6-4 5-4z" fill="#B3BCC1"/>
<path transform="translate(744,306)" d="m0 0h15l8 2v-2h2v2l2 1-2 1h-13l-11-2-1 4-4 3-3 1-2 6h-3l-1 4-4 5-4 13v23l2 17 2 9 3 6 7 2 12 1 10 10-1 5-2-4-4-1-2-5-9 2-2 6-1 2h-7l-7-9-4-13-1-12h-2l-2-23v-13l2-9 4-8 2-1 3-10h2v-2l5-2 1-3 8-3z" fill="#B2BBC0"/>
<path transform="translate(555,367)" d="m0 0h24l11 4 6 3v2l5 1 2 3v5h-6l-1 3h-23l-7-2h-21l-2-4 2-9 2-1 1-3z" fill="#D0D9E0"/>
<path transform="translate(955,571)" d="m0 0h1v9l-3 7-2 9-8 15-2 1-4 9-3 10-10 26-5 9-7 6-10 3h-5l-3-6 1-9 9-25 4-13 5-17 2-3v-7l1-2h4l1 2-1 9 8-5 6-8 1 3-5 8-5 6h-2v2l-5 3h-4l-1 5-7 21-6 14-2 6v10l11-2 9-9 6-13 2-6 2-15 2-7h2l3-9 4-4h2l1-5 6-14 4-6z" fill="#B3BCC1"/>
<path transform="translate(96,247)" d="m0 0 4 1 2 10v4l6-1 3 2 2-4 2 1-1 5v3l2 3v3h-5l-1 3-4-1 1 10 2-1 1-6h2v-2h2l1 2v9l-1 4v10h2v3l-4-1-2-2-9-1-3-1v-3h-2l-4-9 1-10-3-1-1-8v-4l-4-1v-5l6 1v3h2v-5l3-1v-2h-2v-6z" fill="#72898C"/>
<path transform="translate(804,390)" d="m0 0h19l11 6 9 9 1 2 1 10-14-1-21-5-2-3-4-1-1-7-9-1-2-4z" fill="#CFD8DF"/>
<path transform="translate(712,1081)" d="m0 0 4 1 3 12 2 7 2-9 4-1 5 13-2 12-2 4-4 1 1 12-1 2-4-2-4-3-2-7-4-4-2-14-2-6v-9l4-7z" fill="#B3BCC1"/>
<path transform="translate(645,504)" d="m0 0h6l13 5 8 5 20 3 4 1 34 1 7 2 8 6v8l5 2 8 10 4 4 4 7v8l-3 6-1-3 2-6-4-10-6-5-5-8-5-4-4-9-5-3h-15l-30-1-4-2h-2v3l-3 1-2-5-14-1-4-6h-13l-3 1-4 7-5 3-8 2h-3l6-6 6-1v-4l2-1 4-8z" fill="#B3BCC1"/>
<path transform="translate(606,1154)" d="m0 0 11 2 2 1 3 16v13l-6 2v3h-2l-1 6h-2v-4l-5-3-3-6-2 2-1-7v-17l4-6z" fill="#B3BCC1"/>
<path transform="translate(754,1077)" d="m0 0h1v7l-2 13-8 18-1 9-8 15h-3l-1 6-4 2-2-7v-10l11-21 5-12 4-7 3-9z" fill="#1D2A38"/>
<path transform="translate(469,829)" d="m0 0 5 5 3 9 4 4 8 15 2 5v10l-5-1-11-6v-2l-4-2-1-3h-2l-1-2v-23z" fill="#72898C"/>
<path transform="translate(326,24)" d="m0 0h2l-3 14 1 16v21l4 2 1 2v6h-6l-3-3v-10h-2l-5-9v-15h-2l-1-3-1-16z" fill="#1D2A38"/>
<path transform="translate(818,367)" d="m0 0h10l5 2 3 3h4l1 6-1 4h2l-1 3-5 4h-11l-11-1v-2l-4-2v-7z" fill="#D0D9E0"/>
<path transform="translate(828,895)" d="m0 0h2l1 3v21l-4 15-5 1 2-11v-4l-3 8-4 4-8 1-1-4 3-2v-3h-2l1-6 3-5h3l1-6 5-5 1-2h4z" fill="#B3BCC1"/>
<path transform="translate(811,948)" d="m0 0h4v13l-3 10-14 16-2 2h-5l-1-4 4-12 5-8 5-1-1-8 5-7z" fill="#B3BCC1"/>
<path transform="translate(716,1214)" d="m0 0h1l-1 23-1 18-3 18-3 3-1-4-2 2-2 6h-7v-5h-2v-2h4l1-9 3-9h2l2 3 2-18 5-24z" fill="#1D2A38"/>
<path transform="translate(626,1128)" d="m0 0 4 1 2 4 8-1 2 4v12l-1 3v3h-3v7h-4l-1 3h-2v3h-3l-2-18z" fill="#B1BABF"/>
<path transform="translate(620,413)" d="m0 0 2 1-4 4-1 11-1 1-21 3-5 4-16 5-4-1 13-5 8-5 2-4-5-1 2-4 5-3 10-1 5-2 7-1z" fill="#72898C"/>
<path transform="translate(533,1019)" d="m0 0 6 1-1 6-3 6-2 1h-24l-4-4v-6l2-2 14-1 9 1z" fill="#72898C"/>
<path transform="translate(118,777)" d="m0 0 1 2h3l1 2 2-3h2l1 2v8l-3 1v-2h-2l3 5-1 4v4l1 9-1 2h-5l-5 3-1-2v-19l3-1-1-12z" fill="#1D2A38"/>
<path transform="translate(568,349)" d="m0 0 14 1 3 2 7-1 6 5v8l-1 1h-15l-8-4-1-4 1-2-7-2z" fill="#D1DAE1"/>
<path transform="translate(578,1257)" d="m0 0h4v8 2l2 4-1 9h-17l-1-7 2-7 3-2h3l1-3z" fill="#B3BCC1"/>
<path transform="translate(610,1032)" d="m0 0 7 1 2 3-1 9-3 6h-15l-2-2v-6l7-8z" fill="#72898C"/>
<path transform="translate(686,1219)" d="m0 0h6l-1 8h-9l3 3-1 4-4-1-2 4-5 3-4-4-1-12h2v-3h10z" fill="#D1DAE1"/>
<path transform="translate(1044,719)" d="m0 0 2 1v11l-1 16-4 15h-5v-13l2-15 4-12z" fill="#72898C"/>
<path transform="translate(706,572)" d="m0 0 5 2 7 6 6 4 7 5 4 1h14l6-5-2 5-5 6-7 3-3 1-10-4-1-3-6-4-1-5-8-4z" fill="#B3BCC1"/>
<path transform="translate(828,895)" d="m0 0h2l1 3v21l-4 15-5 1 2-11-1-12-2-4 2-3h2v-2l-3-1 1-2h4z" fill="#ABB6BB"/>
<path transform="translate(799,389)" d="m0 0h20v1l-15 1-9 4h-3l2 3 9 2 1 7 6 1-1 2-15-2v-4l-4-1-1-2-8-1 2-5h5l1-3z" fill="#B1BABF"/>
<path transform="translate(91,617)" d="m0 0h4l2 2 2 1 1 3v10h-2l-1-2-4-1v-6h-2v12h2v5h-6l-1-5 1-3h-2l-1-6 3-8 2-1 2 1z" fill="#70878A"/>
<path transform="translate(594,1192)" d="m0 0 4 4 2 8v7l1 5v13l-1 4h-3l-2-11-1-9z" fill="#B3BCC1"/>
<path transform="translate(684,1035)" d="m0 0h1v12l5 1-2 7-10 5h-18l-2-5 4 1h11l5-3h2l3-16z" fill="#B3BCC1"/>
<path transform="translate(922,444)" d="m0 0 2 1 3 24 1 11v45l-1 21-2 2v-14l1-12v-35l-4-25z" fill="#72898C"/>
<path transform="translate(1045,386)" d="m0 0h4v10l-5 14-2 3h-3l-1-6v-8z" fill="#B3BCC1"/>
<path transform="translate(890,676)" d="m0 0 7 2 1 5-2 6h2v3l-8 3h-5l1-9z" fill="#1D2A38"/>
<path transform="translate(638,1239)" d="m0 0 4 1 3 10v9l-2 2-1 3-5-1-1-14-1-5h2z" fill="#D1DAE1"/>
<path transform="translate(619,526)" d="m0 0 1 2 2 1h-5v2l-7 6-5-1h-2v3l-8-1-4 2 2-6 1-2 3-1 2-4 6 1 2 5 5-2 3-4z" fill="#B3BCC1"/>
<path transform="translate(998,694)" d="m0 0 5 2 1 1v8l-2 9-4 7h-2v-5l1-1 1-8-4-2 1-7z" fill="#72898C"/>
<path transform="translate(95,637)" d="m0 0 2 4 2-1 2 10-1 1-1 10-3 3h2l1 6-4 2-1-3-1-25z" fill="#72898C"/>
<path transform="translate(824,883)" d="m0 0h2l3 8-1 6-1 3h-4l-2 5-4 4-1 4-2-1 1-7 3-3h2l-2-4 4-8z" fill="#72898C"/>
<path transform="translate(990,862)" d="m0 0 4 1 1 4v6l3 2 2 6v6l-3 2-3-1-1-5v-4l-4-9v-6z" fill="#72898C"/>
<path transform="translate(953,1174)" d="m0 0h2l2 5 1 7v10l-4 14h-3l2-20z" fill="#72898C"/>
<path transform="translate(555,1112)" d="m0 0 6 2v2l-3 2v20l-2 2-3-6-1-8v-12z" fill="#B3BCC1"/>
<path transform="translate(119,342)" d="m0 0 6 1 1 5v4l-1 5-5 4-3-4v-10z" fill="#72898C"/>
<path transform="translate(758,431)" d="m0 0 5 1 6 11 2 4 4 2 6 5 3 3 18 9-4 1-16-8-10-9-5-4-9-14z" fill="#B3BCC1"/>
<path transform="translate(1024,494)" d="m0 0h3v19l-3 8-3-1v-13l2-10z" fill="#D1DAE1"/>
<path transform="translate(715,1259)" d="m0 0h3l-1 6-1 4v10l-1 1h-11l2-7 2-5h1l1 7 2-8 1-6h2z" fill="#AFB8BD"/>
<path transform="translate(592,1242)" d="m0 0 3 1v22l-4-1-3-4 1-7-1-5 3-3z" fill="#B3BCC1"/>
<path transform="translate(709,1136)" d="m0 0 3 3 2 9 2 21v7l-2-2-3-11-2-15z" fill="#1D2A38"/>
<path transform="translate(740,1074)" d="m0 0h4v11l-4 9-3 1-1-2v-7z" fill="#B3BCC1"/>
<path transform="translate(641,1015)" d="m0 0 3 1 2 4v7l-2 5-4 2-2-6 1-11z" fill="#72898C"/>
<path transform="translate(595,1161)" d="m0 0h1l1 6v14l-2 4h-2l-1-6v-15h2z" fill="#B3BCC1"/>
<path transform="translate(647,1165)" d="m0 0 2 3 1 7v35h-1l-1-5-1-17z" fill="#1D2A38"/>
<path transform="translate(111,323)" d="m0 0 5 3 1 4-2 2-1 7-4 1-3-2 3-14z" fill="#72898C"/>
<path transform="translate(702,570)" d="m0 0h6l15 10 7 7 7 2 8 1v1h-10l-7-3-20-15-6-2z" fill="#72898C"/>
<path transform="translate(660,1080)" d="m0 0h6l1 3-7 8-5-1v-7z" fill="#72898C"/>
<path transform="translate(702,1060)" d="m0 0 5 1-1 3-1 12-4 2-2-1 1-13z" fill="#1D2A38"/>
<path transform="translate(821,903)" d="m0 0h4v2h-2l-1 5 2 2v6h-2v3l-4-1v-14z" fill="#CFD8DF"/>
<path transform="translate(739,1057)" d="m0 0h2v8l-6 20h-1v-11l3-9z" fill="#1D2A38"/>
<path transform="translate(704,669)" d="m0 0 9 2 16 3 11 1v1h-5l-1 4-4-3-4-1h-10l-2-2-9-3z" fill="#72898C"/>
<path transform="translate(722,1257)" d="m0 0h3v23h-2l-2-12-1-4z" fill="#B3BCC1"/>
<path transform="translate(92,827)" d="m0 0 2 1 1 6-1 14-3 3-1-21z" fill="#1D2A38"/>
<path transform="translate(800,971)" d="m0 0h1l1 6-6 5-3 3-2-1 2-9z" fill="#CED7DE"/>
<path transform="translate(553,1009)" d="m0 0h10v4l-4 3-9-2 1-4z" fill="#72898C"/>
<path transform="translate(750,951)" d="m0 0h1l1 11-3 3h-4v-9l4-2z" fill="#1D2A38"/>
<path transform="translate(726,1253)" d="m0 0h2l2 11-2 14-2 1z" fill="#1D2A38"/>
<path transform="translate(601,991)" d="m0 0h6v3l-4 1-2 4-3 2-4-1 5-8z" fill="#72898C"/>
<path transform="translate(1056,756)" d="m0 0 5 4v5l-3 3h-4v-9z" fill="#72898C"/>
<path transform="translate(979,275)" d="m0 0 4 1 2 5v6h-3v-2l-4-1v-8z" fill="#B3BCC1"/>
<path transform="translate(339,127)" d="m0 0 4 1 1 1v7l-4 1-3-1-1-5z" fill="#1D2A38"/>
<path transform="translate(712,1267)" d="m0 0h1v13h-9l2-7 2-5h1l1 7z" fill="#72898C"/>
<path transform="translate(707,1200)" d="m0 0h2l-1 7-6 2-3-6 2-2z" fill="#D1DAE1"/>
<path transform="translate(814,721)" d="m0 0 5 1 2 5-2 4-4 1-1-2z" fill="#72898C"/>
<path transform="translate(104,573)" d="m0 0h3l1 16-4 1-1-14z" fill="#72898C"/>
<path transform="translate(698,629)" d="m0 0m-1 1m-11 0h6v2l5-1-2 4-15-2-2-2z" fill="#B3BCC1"/>
<path transform="translate(646,1087)" d="m0 0 3 2-3 5h-7v-6h6z" fill="#72898C"/>
<path transform="translate(481,945)" d="m0 0 4 1-1 9-5 1v-7h2z" fill="#72898C"/>
<path transform="translate(548,687)" d="m0 0 1 2 5 1 1 3-2 3h-4l-3-4z" fill="#B3BCC1"/>
<path transform="translate(1034,836)" d="m0 0h1l1 13-1 3h-3v-11z" fill="#72898C"/>
<path transform="translate(369,47)" d="m0 0 6 1-1 5-5 2-2-2v-4h2z" fill="#1D2A38"/>
<path transform="translate(581,1185)" d="m0 0 3 1 1 10-2 3-2-1z" fill="#1D2A38"/>
<path transform="translate(976,239)" d="m0 0 3 3v9l-5-1 1-10z" fill="#B3BCC1"/>
<path transform="translate(740,676)" d="m0 0h6l10 6 9 1v1h-12l-3-3-10-4z" fill="#72898C"/>
<path transform="translate(592,407)" d="m0 0 4 4-1 5-3 1-2-1v-6z" fill="#72898C"/>
<path transform="translate(598,1234)" d="m0 0 4 2v9l-2 3h-2z" fill="#B3BCC1"/>
<path transform="translate(794,910)" d="m0 0 2 1-1 7-3 2h-3l1-5z" fill="#1D2A38"/>
<path transform="translate(878,923)" d="m0 0h2l2 9 1 5h-3v-4h-2z" fill="#1D2A38"/>
<path transform="translate(1e3 789)" d="m0 0h3v11h-2l-2-5v-5z" fill="#72898C"/>
<path transform="translate(919,60)" d="m0 0 2 1 1 8-5 1-2-1-1 2-2-2 6-3z" fill="#1D2A38"/>
<path transform="translate(1157,705)" d="m0 0 2 2v13h-2l-1-12z" fill="#72898C"/>
<path transform="translate(809,959)" d="m0 0 2 1v5l-2 4h-3l1-7z" fill="#D1DAE1"/>
<path transform="translate(911,927)" d="m0 0 5 1v7h-5l1-4z" fill="#1D2A38"/>
<path transform="translate(139,244)" d="m0 0h1v8h-4l-1-7z" fill="#72898C"/>
<path transform="translate(212,231)" d="m0 0 3 1v9l-2 2-2-4v-7z" fill="#1D2A38"/>
<path transform="translate(635,1164)" d="m0 0h2v11h-3v-9z" fill="#B3BCC1"/>
<path transform="translate(814,916)" d="m0 0 3 1 1 4 2 1-1 3-4-1-1-2z" fill="#D1DAE1"/>
<path transform="translate(313,540)" d="m0 0 2 1v2h3v6l-5-1z" fill="#B3BCC1"/>
<path transform="translate(769,1094)" d="m0 0h1v7l-4 5v-7z" fill="#B3BCC1"/>
<path transform="translate(1073,910)" d="m0 0h3l1 5-1 2-4-1z" fill="#B3BCC1"/>
<path transform="translate(202,234)" d="m0 0 4 2 1 3 2 2-1 2-3-1-1-3-4-1v-2h2z" fill="#1D2A38"/>
<path transform="translate(578,1138)" d="m0 0h4v8l-3-1z" fill="#B3BCC1"/>
<path transform="translate(784 1e3)" d="m0 0h5l-2 5-4 1v-5z" fill="#D1DAE1"/>
<path transform="translate(813,968)" d="m0 0 1 3-1 4-6 2 2-4z" fill="#72898C"/>
<path transform="translate(758,1135)" d="m0 0h2l1 6-1 2h-3v-7z" fill="#B3BCC1"/>
<path transform="translate(903,920)" d="m0 0 3 1-1 4-5 2 1-6z" fill="#1D2A38"/>
<path transform="translate(401,503)" d="m0 0h2l1 5-2 3h-2l-1-4z" fill="#72898C"/>
<path transform="translate(369,15)" d="m0 0 3 1-1 8-1-2h-2v-6z" fill="#1D2A38"/>
</svg>
